<svg width="20" height="20" viewBox="0 0 20 20" fill="none" xmlns="http://www.w3.org/2000/svg">
<path d="M8.75 17.5H4.16667C3.72464 17.5 3.30072 17.3244 2.98816 17.0118C2.67559 16.6993 2.5 16.2754 2.5 15.8333V4.16667C2.5 3.72464 2.67559 3.30072 2.98816 2.98816C3.30072 2.67559 3.72464 2.5 4.16667 2.5H15.8333C16.2754 2.5 16.6993 2.67559 17.0118 2.98816C17.3244 3.30072 17.5 3.72464 17.5 4.16667V8.75" stroke="#00689F" stroke-width="1.5" stroke-linecap="round" stroke-linejoin="round"/>
<path d="M11.916 16.3333L12.7493 16" stroke="#00689F" stroke-width="1.5" stroke-linecap="round" stroke-linejoin="round"/>
<path d="M12.5 2.5V8.75" stroke="#00689F" stroke-width="1.5" stroke-linecap="round" stroke-linejoin="round"/>
<path d="M12.666 14.0833L11.916 13.8333" stroke="#00689F" stroke-width="1.5" stroke-linecap="round" stroke-linejoin="round"/>
<path d="M13.834 18.0833L14.084 17.3333" stroke="#00689F" stroke-width="1.5" stroke-linecap="round" stroke-linejoin="round"/>
<path d="M13.9993 12.75L13.666 11.9167" stroke="#00689F" stroke-width="1.5" stroke-linecap="round" stroke-linejoin="round"/>
<path d="M15.916 12.6667L16.166 11.9167" stroke="#00689F" stroke-width="1.5" stroke-linecap="round" stroke-linejoin="round"/>
<path d="M16.3333 18.0833L16 17.25" stroke="#00689F" stroke-width="1.5" stroke-linecap="round" stroke-linejoin="round"/>
<path d="M17.25 14L18.0833 13.6667" stroke="#00689F" stroke-width="1.5" stroke-linecap="round" stroke-linejoin="round"/>
<path d="M18.084 16.1667L17.334 15.9167" stroke="#00689F" stroke-width="1.5" stroke-linecap="round" stroke-linejoin="round"/>
<path d="M7.5 2.5V17.5" stroke="#00689F" stroke-width="1.5" stroke-linecap="round" stroke-linejoin="round"/>
<path d="M15 17.5C16.3807 17.5 17.5 16.3807 17.5 15C17.5 13.6193 16.3807 12.5 15 12.5C13.6193 12.5 12.5 13.6193 12.5 15C12.5 16.3807 13.6193 17.5 15 17.5Z" stroke="#00689F" stroke-width="1.5" stroke-linecap="round" stroke-linejoin="round"/>
</svg>
