<svg width="20" height="20" viewBox="0 0 20 20" fill="none" xmlns="http://www.w3.org/2000/svg">
<path d="M9.25065 18.3333H5.00065C4.55862 18.3333 4.1347 18.1577 3.82214 17.8452C3.50958 17.5326 3.33398 17.1087 3.33398 16.6667V3.33333C3.33398 2.8913 3.50958 2.46738 3.82214 2.15482C4.1347 1.84226 4.55862 1.66666 5.00065 1.66666H11.6673C11.9314 1.66601 12.193 1.71767 12.437 1.81865C12.681 1.91963 12.9026 2.06793 13.089 2.255L16.0798 5.245C16.2667 5.43146 16.4149 5.65308 16.5157 5.89709C16.6166 6.14109 16.6681 6.40265 16.6673 6.66666V9.375" stroke="#00689F" stroke-width="1.5" stroke-linecap="round" stroke-linejoin="round"/>
<path d="M11.666 1.66666V5.83332C11.666 6.05434 11.7538 6.2663 11.9101 6.42258C12.0664 6.57886 12.2783 6.66666 12.4993 6.66666H16.666" stroke="#00689F" stroke-width="1.5" stroke-linecap="round" stroke-linejoin="round"/>
<path d="M17.4996 18.3333L15.0996 15.9333" stroke="#00689F" stroke-width="1.5" stroke-linecap="round" stroke-linejoin="round"/>
<path d="M13.334 16.6667C14.7147 16.6667 15.834 15.5474 15.834 14.1667C15.834 12.7859 14.7147 11.6667 13.334 11.6667C11.9533 11.6667 10.834 12.7859 10.834 14.1667C10.834 15.5474 11.9533 16.6667 13.334 16.6667Z" stroke="#00689F" stroke-width="1.5" stroke-linecap="round" stroke-linejoin="round"/>
</svg>
