<svg width="20" height="20" viewBox="0 0 20 20" fill="none" xmlns="http://www.w3.org/2000/svg">
<path d="M9.16602 14.1666L10.8327 15.8333C10.9968 15.9975 11.1917 16.1277 11.4062 16.2165C11.6207 16.3054 11.8505 16.3511 12.0827 16.3511C12.3148 16.3511 12.5447 16.3054 12.7592 16.2165C12.9737 16.1277 13.1685 15.9975 13.3327 15.8333C13.4968 15.6692 13.627 15.4743 13.7159 15.2598C13.8047 15.0453 13.8504 14.8155 13.8504 14.5833C13.8504 14.3512 13.8047 14.1213 13.7159 13.9068C13.627 13.6923 13.4968 13.4975 13.3327 13.3333" stroke="#00689F" stroke-width="1.5" stroke-linecap="round" stroke-linejoin="round"/>
<path d="M11.6669 11.6667L13.7502 13.75C14.0817 14.0815 14.5313 14.2678 15.0002 14.2678C15.469 14.2678 15.9187 14.0815 16.2502 13.75C16.5817 13.4185 16.768 12.9688 16.768 12.5C16.768 12.0312 16.5817 11.5815 16.2502 11.25L13.0169 8.01666C12.5481 7.54849 11.9127 7.28553 11.2502 7.28553C10.5877 7.28553 9.95227 7.54849 9.48352 8.01666L8.75019 8.74999C8.41867 9.08151 7.96903 9.26776 7.50019 9.26776C7.03135 9.26776 6.58171 9.08151 6.25019 8.74999C5.91867 8.41847 5.73242 7.96883 5.73242 7.49999C5.73242 7.03115 5.91867 6.58151 6.25019 6.24999L8.59186 3.90833C9.35206 3.15011 10.3434 2.66712 11.4091 2.5358C12.4747 2.40449 13.5537 2.63235 14.4752 3.18333L14.8669 3.41666C15.2217 3.63081 15.6436 3.70509 16.0502 3.62499L17.5002 3.33333" stroke="#00689F" stroke-width="1.5" stroke-linecap="round" stroke-linejoin="round"/>
<path d="M17.4993 2.5L18.3327 11.6667H16.666" stroke="#00689F" stroke-width="1.5" stroke-linecap="round" stroke-linejoin="round"/>
<path d="M2.49935 2.5L1.66602 11.6667L7.08268 17.0833C7.4142 17.4149 7.86384 17.6011 8.33268 17.6011C8.80152 17.6011 9.25116 17.4149 9.58268 17.0833C9.9142 16.7518 10.1004 16.3022 10.1004 15.8333C10.1004 15.3645 9.9142 14.9149 9.58268 14.5833" stroke="#00689F" stroke-width="1.5" stroke-linecap="round" stroke-linejoin="round"/>
<path d="M2.5 3.33331H9.16667" stroke="#00689F" stroke-width="1.5" stroke-linecap="round" stroke-linejoin="round"/>
</svg>
