<svg width="20" height="20" viewBox="0 0 20 20" fill="none" xmlns="http://www.w3.org/2000/svg">
<g clip-path="url(#clip0_768_1341)">
<path d="M10.8327 18.3334H5.49174C4.20392 18.3334 3.17961 17.7067 2.2599 16.8305C0.377153 15.0368 3.46835 13.6034 4.64733 12.9013C6.27483 11.9323 8.15993 11.5337 9.99935 11.7055" stroke="#00689F" stroke-width="1.5" stroke-linecap="round" stroke-linejoin="round"/>
<path d="M12.916 5.41666C12.916 7.48772 11.2371 9.16666 9.16602 9.16666C7.09495 9.16666 5.41602 7.48772 5.41602 5.41666C5.41602 3.34559 7.09495 1.66666 9.16602 1.66666C11.2371 1.66666 12.916 3.34559 12.916 5.41666Z" stroke="#00689F" stroke-width="1.5"/>
<path d="M17.7995 18.8608C18.0908 19.1553 18.5657 19.1578 18.8602 18.8665C19.1546 18.5752 19.1572 18.1003 18.8659 17.8059L18.3327 18.3334L17.7995 18.8608ZM16.7956 16.7797L16.2625 17.3072L17.7995 18.8608L18.3327 18.3334L18.8659 17.8059L17.3288 16.2522L16.7956 16.7797ZM17.666 14.6667H18.416C18.416 12.5956 16.7371 10.9167 14.666 10.9167V11.6667V12.4167C15.9087 12.4167 16.916 13.424 16.916 14.6667H17.666ZM14.666 11.6667V10.9167C12.5949 10.9167 10.916 12.5956 10.916 14.6667H11.666H12.416C12.416 13.424 13.4234 12.4167 14.666 12.4167V11.6667ZM11.666 14.6667H10.916C10.916 16.7378 12.5949 18.4167 14.666 18.4167V17.6667V16.9167C13.4234 16.9167 12.416 15.9093 12.416 14.6667H11.666ZM14.666 17.6667V18.4167C16.7371 18.4167 18.416 16.7378 18.416 14.6667H17.666H16.916C16.916 15.9093 15.9087 16.9167 14.666 16.9167V17.6667Z" fill="#00689F"/>
</g>
<defs>
<clipPath id="clip0_768_1341">
<rect width="20" height="20" fill="white"/>
</clipPath>
</defs>
</svg>
