<svg width="20" height="20" viewBox="0 0 20 20" fill="none" xmlns="http://www.w3.org/2000/svg">
<g clip-path="url(#clip0_768_2363)">
<path d="M10 16.6666V18.3333" stroke="#00689F" stroke-width="1.5" stroke-linecap="round" stroke-linejoin="round"/>
<path d="M10 1.66663V3.33329" stroke="#00689F" stroke-width="1.5" stroke-linecap="round" stroke-linejoin="round"/>
<path d="M14.166 16.6666V18.3333" stroke="#00689F" stroke-width="1.5" stroke-linecap="round" stroke-linejoin="round"/>
<path d="M14.166 1.66663V3.33329" stroke="#00689F" stroke-width="1.5" stroke-linecap="round" stroke-linejoin="round"/>
<path d="M1.66602 10H3.33268" stroke="#00689F" stroke-width="1.5" stroke-linecap="round" stroke-linejoin="round"/>
<path d="M1.66602 14.1666H3.33268" stroke="#00689F" stroke-width="1.5" stroke-linecap="round" stroke-linejoin="round"/>
<path d="M1.66602 5.83337H3.33268" stroke="#00689F" stroke-width="1.5" stroke-linecap="round" stroke-linejoin="round"/>
<path d="M16.666 10H18.3327" stroke="#00689F" stroke-width="1.5" stroke-linecap="round" stroke-linejoin="round"/>
<path d="M16.666 14.1666H18.3327" stroke="#00689F" stroke-width="1.5" stroke-linecap="round" stroke-linejoin="round"/>
<path d="M16.666 5.83337H18.3327" stroke="#00689F" stroke-width="1.5" stroke-linecap="round" stroke-linejoin="round"/>
<path d="M5.83398 16.6666V18.3333" stroke="#00689F" stroke-width="1.5" stroke-linecap="round" stroke-linejoin="round"/>
<path d="M5.83398 1.66663V3.33329" stroke="#00689F" stroke-width="1.5" stroke-linecap="round" stroke-linejoin="round"/>
<path d="M15.0007 3.33337H5.00065C4.08018 3.33337 3.33398 4.07957 3.33398 5.00004V15C3.33398 15.9205 4.08018 16.6667 5.00065 16.6667H15.0007C15.9211 16.6667 16.6673 15.9205 16.6673 15V5.00004C16.6673 4.07957 15.9211 3.33337 15.0007 3.33337Z" stroke="#00689F" stroke-width="1.5" stroke-linecap="round" stroke-linejoin="round"/>
<path d="M12.4993 6.66663H7.49935C7.03911 6.66663 6.66602 7.03972 6.66602 7.49996V12.5C6.66602 12.9602 7.03911 13.3333 7.49935 13.3333H12.4993C12.9596 13.3333 13.3327 12.9602 13.3327 12.5V7.49996C13.3327 7.03972 12.9596 6.66663 12.4993 6.66663Z" stroke="#00689F" stroke-width="1.5" stroke-linecap="round" stroke-linejoin="round"/>
</g>
<defs>
<clipPath id="clip0_768_2363">
<rect width="20" height="20" fill="white"/>
</clipPath>
</defs>
</svg>
