<svg width="20" height="20" viewBox="0 0 20 20" fill="none" xmlns="http://www.w3.org/2000/svg">
<path d="M9.99935 10.8333C10.4596 10.8333 10.8327 10.4602 10.8327 9.99996C10.8327 9.53972 10.4596 9.16663 9.99935 9.16663C9.53911 9.16663 9.16602 9.53972 9.16602 9.99996C9.16602 10.4602 9.53911 10.8333 9.99935 10.8333Z" stroke="#00689F" stroke-width="1.5" stroke-linecap="round" stroke-linejoin="round"/>
<path d="M16.8335 16.8334C18.5335 15.1417 16.8502 10.7 13.0835 6.91669C9.30015 3.15003 4.85848 1.46669 3.16682 3.16669C1.46682 4.85836 3.15015 9.30003 6.91682 13.0834C10.7001 16.85 15.1418 18.5334 16.8335 16.8334Z" stroke="#00689F" stroke-width="1.5" stroke-linecap="round" stroke-linejoin="round"/>
<path d="M13.0835 13.0834C16.8502 9.30003 18.5335 4.85836 16.8335 3.16669C15.1418 1.46669 10.7001 3.15003 6.91682 6.91669C3.15015 10.7 1.46682 15.1417 3.16682 16.8334C4.85848 18.5334 9.30015 16.85 13.0835 13.0834Z" stroke="#00689F" stroke-width="1.5" stroke-linecap="round" stroke-linejoin="round"/>
</svg>
