<svg width="20" height="20" viewBox="0 0 20 20" fill="none" xmlns="http://www.w3.org/2000/svg">
<path d="M16.6673 10.8334C16.6673 15 13.7507 17.0834 10.284 18.2917C10.1025 18.3532 9.90527 18.3503 9.72565 18.2834C6.25065 17.0834 3.33398 15 3.33398 10.8334V5.00003C3.33398 4.77902 3.42178 4.56705 3.57806 4.41077C3.73434 4.25449 3.9463 4.1667 4.16732 4.1667C5.83398 4.1667 7.91732 3.1667 9.36732 1.90003C9.54386 1.74919 9.76845 1.66632 10.0007 1.66632C10.2329 1.66632 10.4574 1.74919 10.634 1.90003C12.0923 3.17503 14.1673 4.1667 15.834 4.1667C16.055 4.1667 16.267 4.25449 16.4232 4.41077C16.5795 4.56705 16.6673 4.77902 16.6673 5.00003V10.8334Z" stroke="#00689F" stroke-width="1.5" stroke-linecap="round" stroke-linejoin="round"/>
<path d="M10 18.3334V1.66669" stroke="#00689F" stroke-width="1.5" stroke-linecap="round" stroke-linejoin="round"/>
</svg>
