<svg width="20" height="20" viewBox="0 0 20 20" fill="none" xmlns="http://www.w3.org/2000/svg">
<path d="M12.5282 7.86661C12.61 7.91397 12.6779 7.98201 12.7252 8.06392C12.7724 8.14583 12.7973 8.23872 12.7973 8.33328C12.7973 8.42783 12.7724 8.52072 12.7252 8.60263C12.6779 8.68454 12.61 8.75259 12.5282 8.79994L9.14065 10.7599C9.05885 10.8073 8.966 10.8322 8.87149 10.8322C8.77698 10.8322 8.68414 10.8073 8.60233 10.76C8.52052 10.7126 8.45264 10.6446 8.40552 10.5626C8.35841 10.4807 8.33374 10.3878 8.33399 10.2933V6.37328C8.33382 6.27889 8.35852 6.18612 8.40559 6.1043C8.45266 6.02249 8.52044 5.95451 8.60212 5.90721C8.6838 5.8599 8.7765 5.83494 8.87089 5.83484C8.96528 5.83473 9.05803 5.85949 9.13982 5.90661L12.5282 7.86661Z" stroke="#00689F" stroke-width="1.5" stroke-linecap="round" stroke-linejoin="round"/>
<path d="M5.83398 17.5H14.1673" stroke="#00689F" stroke-width="1.5" stroke-linecap="round" stroke-linejoin="round"/>
<path d="M16.666 2.5H3.33268C2.41221 2.5 1.66602 3.24619 1.66602 4.16667V12.5C1.66602 13.4205 2.41221 14.1667 3.33268 14.1667H16.666C17.5865 14.1667 18.3327 13.4205 18.3327 12.5V4.16667C18.3327 3.24619 17.5865 2.5 16.666 2.5Z" stroke="#00689F" stroke-width="1.5" stroke-linecap="round" stroke-linejoin="round"/>
</svg>
